<svg id="Слой_1" data-name="Слой 1" xmlns="http://www.w3.org/2000/svg" viewBox="0 0 355.69 193.69"><defs><style>.cls-1{fill:#141515;fill-rule:evenodd;}.cls-2{fill:#fcd500;}</style></defs><title>Logo</title><path class="cls-1" d="M372.73,176.08c-2.52-5.39-5.73-14-5.67-20,.17-14.57-.06-51.22-.06-51.68V92.65l-7.94,8.73a19.25,19.25,0,0,1-6.15,4.39,23,23,0,0,1-5.33,1.73l-.68-1.9A63,63,0,0,0,340,92a56.22,56.22,0,0,0-10.12-11.51c-1.5-1.28-3-2.47-4.51-3.6a37.82,37.82,0,0,0-9.89-5.39,32,32,0,0,0-14.26-1.62,35.46,35.46,0,0,0-5.36,1,41.82,41.82,0,0,0-5.7,1.87l-.6.26a23.37,23.37,0,0,0-12.9,13.27c-.14.4-.28.77-.4,1.16-.09.23-.14.48-.23.71l-1.22-.65a79,79,0,0,1-13.24-9.38q-3.4-3-6.46-6.12c-1.33-1.39-4.11-4.45-6.24-7.17a18.49,18.49,0,0,1-2.55-3.88l-1.79-4.51-4.39,2.1a78,78,0,0,1-14.51,5c-2.32.6-4.62,1.08-6.75,1.42a65.24,65.24,0,0,1-16.1.85A44.65,44.65,0,0,1,192,63.57l-8.33-7.09L176.12,50,164.32,40l-.23-.2-7.34,6.46L149,53.05c-.4-5.41-4.39-11.62-8.73-14.66a31,31,0,0,1-3.66-3,22.64,22.64,0,0,1-5.5-8.05A27.1,27.1,0,0,1,130,23.43c-.43-2.1-1.08-4.22-3-5.07a4.87,4.87,0,0,0-1.79-.4l-3.6-.14-1,3.46c-.28,1-.45,2.07-.74,3.09a25.56,25.56,0,0,1-1.5,4.28,33.76,33.76,0,0,1-9.5,11.91,29.09,29.09,0,0,0-6.07,6.55c-.48-.74-1-1.47-1.5-2.21-1.5-2.18-3.06-4.34-4.62-6.49A53.22,53.22,0,0,0,92.13,33c-1.22-1.25-2.44-2.44-3.66-3.54L85,26.38l-.37.43L82,29.86a33.76,33.76,0,0,1-2.66,3.06,22,22,0,0,1-6,3.94C64.15,41.12,51.82,40.55,42.07,39a10.06,10.06,0,0,0-1.33-.17,24.87,24.87,0,0,0-9.33.88C23.24,42.36,20,49.34,20.47,57.56a152.36,152.36,0,0,0,2.78,20.86c.57,2.66,1.19,5.53,2,8.14l1,3.17h10.4l1.25-1A23.46,23.46,0,0,0,40.73,86c1.81-2.07,3.6-4.51,4.93-6.32,1.87-2.49,3.68-5.07,5.47-7.65a63.8,63.8,0,0,1,6.46,1.16,53.24,53.24,0,0,0,8,1.08c-.68,1.7-1.45,3.34-2.15,4.73A48.35,48.35,0,0,1,47.79,97l-.34.2-.28.28a4.76,4.76,0,0,0-1,5.39,6.37,6.37,0,0,0,3.06,3c6.12,3.15,14.51,10.52,17.86,16.61a31.22,31.22,0,0,1,3.52,11.65c.79,7.43-.71,17.89-6.92,22.9a10.14,10.14,0,0,1-3.88,1.9A15.81,15.81,0,0,0,62,155.41a18.36,18.36,0,0,0,.2-14.83,26.08,26.08,0,0,0-11.71-12.73,20.41,20.41,0,0,0-9.78-2.78c-10.2-.17-18.51,8.45-20.81,19.53a26.56,26.56,0,0,0,.79,14.12c3.12,8.65,11.25,15.56,20,19.64a46.07,46.07,0,0,0,9.86,3.34c12.53,2.66,24.07-.2,34-6.46a60.6,60.6,0,0,0,7.48-5.53c1.28-1.11,2.52-2.27,3.74-3.46a63.19,63.19,0,0,0,5.47,5.87c7.11,6.58,15.85,10.91,25.65,10.12a30.55,30.55,0,0,0,6.15-1.19,36.49,36.49,0,0,0,3.49-1.28,29.24,29.24,0,0,0,3.26-1.64,19.7,19.7,0,0,0-3.26,6.32,20.32,20.32,0,0,0-1,6.12,18.42,18.42,0,0,0,1,6.35c2,5.92,7,10.18,13.52,12.19a54.54,54.54,0,0,0,6.6,1.59,52.74,52.74,0,0,0,7.57.79h1.59a47.48,47.48,0,0,0,10.2-1.11,44.85,44.85,0,0,0,7.57-2.32,46,46,0,0,0,13.52-8.45,47.1,47.1,0,0,0,5.56-6,84.23,84.23,0,0,0,14.12-27.44,39.8,39.8,0,0,0,8.73,10A33.53,33.53,0,0,0,236.35,182a31.07,31.07,0,0,0,12.5,1.3,26.22,26.22,0,0,0,12.7-4.68,25.54,25.54,0,0,0,3-2.58,16.11,16.11,0,0,0,11.71,6.41,22.37,22.37,0,0,0,8.5-1,30.81,30.81,0,0,1,4.79-1.08,34.92,34.92,0,0,1,5.7-.31,4.18,4.18,0,0,1,.6,0,22.48,22.48,0,0,1,4.71.6,5.72,5.72,0,0,1,.65.2c4.85,1.45,11.62,3.63,16.41,2.38l5.53-1.45-1.19-2.27a17.27,17.27,0,0,0,3.4,1.19,24,24,0,0,0,12.93-.68c.6-.2,1.13-.34,1.7-.48a22.43,22.43,0,0,1,12.5.57l.45.14c4.79,1.39,12.22,3.34,16.84,2.15L375,181ZM42.41,56.23c-.54.88-1.11,1.76-1.67,2.64-.85,1.36-1.73,2.69-2.61,4.05,0-2.27.09-4.54.28-6.75.11-1.53,1-1.62,2.32-1.59h.34l2.27.11Zm5.73,94.88c-.91,1.08-3.77,1.5-5,1.64-.79.09-1.56.14-2.35.17-1.3.06-2.61.06-3.91.06h-3a12.22,12.22,0,0,1,3.54-11.14,7.67,7.67,0,0,1,3.34-.85c.34,0,.68,0,.94,0,2.83.31,4.51,2.49,5.61,4.93C47.74,146.91,49,150.08,48.13,151.1ZM61.31,58.55c-2.41-1-5-2.3-7.6-3.26a78.37,78.37,0,0,0,14.12-.82c5.92-.94,11.91-2.81,16.81-6.38l.6-.43c.85,1,1.64,1.93,2.41,2.83,1.25,1.53,2.49,3.12,3.69,4.71.23.31.51.71.79,1.08.11.14.2.28.31.43-.11.23-.2.45-.31.68-.65,1.39-1.5,2.89-2,3.86-1.73,3.23-3.57,6.41-5.47,9.55l-.4.68c-.23.34-.43.71-.65,1a15.59,15.59,0,0,0,.26-8.28l-1.16-3.86-4,.68C72.37,62.15,67.15,61,61.31,58.55ZM86.2,151.92l-.34.57c3.43-9.3,2.32-20.61-1.22-29.82q-.47-1.28-1-2.47a73.25,73.25,0,0,0-4.28-8.05,28.25,28.25,0,0,1,3.91,3.43,20.17,20.17,0,0,1,1.39,1.7,30.41,30.41,0,0,1,5.22,15.39C90.26,139.37,89.69,146.06,86.2,151.92Zm13.35-47.37-.14,6.09a47.54,47.54,0,0,0-7.29-7c-1-.77-2-1.47-3.06-2.15a45.54,45.54,0,0,0-4.42-2.52l-.14-.06.14-.17a68.16,68.16,0,0,0,4.93-6l2.55.23,7.63.65Zm3.51,11c-.57-.85-1.13-1.64-1.73-2.44s-1-1.33-1.53-2l1.53.28,1.87.34a22.53,22.53,0,0,1,3.94,1.25A39.37,39.37,0,0,0,103.07,115.53Zm-1.73-38A52.71,52.71,0,0,1,95,84.43c2.32-3.91,4.48-8,6.38-12,1.42-2.89,2.66-5.73,3.77-8.33a16.56,16.56,0,0,0,2.64,1.79C106.87,69.44,104.26,73.74,101.34,77.49ZM127,153.17a23.64,23.64,0,0,1-2.58,4.25c-5.56-3.6-7.14-9.58-5.13-16.44a22.93,22.93,0,0,1,5.22-9.16c.26.37.48.74.65,1A31.92,31.92,0,0,1,127,136.5a26.1,26.1,0,0,1,1.22,3.83A19.51,19.51,0,0,1,127,153.17Zm3.26-58c-1.08-.37-2.18-.71-3.26-1s-2.18-.51-3.26-.71h6.52Zm6.38,28.57a44.14,44.14,0,0,0-5.87-5.87,5.69,5.69,0,0,0,1.36-3.2,5.47,5.47,0,0,0,0-.68A30.41,30.41,0,0,1,136,118.5c.23.31.43.62.65.94a44.33,44.33,0,0,1,5.84,14.31A36.27,36.27,0,0,0,136.63,123.78ZM176.12,74.4a1.33,1.33,0,0,1,.28-.14,3.11,3.11,0,0,0-.28.31c-.71.71-1.39,1.45-2,2.24l-.34-.91A15.21,15.21,0,0,1,176.12,74.4Zm-13,21.74-.23-4.48-.06-1,1.45,4.11,2.47,6.92c-.82.82-1.64,1.67-2.47,2.52l-1.62,1.64c-.28.28-.57.6-.85.91a11.48,11.48,0,0,0,.6-1.67A30.37,30.37,0,0,0,163.16,96.14ZM151.48,82a42.61,42.61,0,0,1,5.27-7.14l.37-.43,5,14.17H162a8.39,8.39,0,0,0-5.22-4.56,9.09,9.09,0,0,0-3.06-.37,5.93,5.93,0,0,1-2.38-1.22C151.37,82.33,151.43,82.19,151.48,82Zm-.06,28.69,5.33.94.74.14.71-.68c-.48.65-1,1.36-1.45,2-.74,1.08-1.42,2.15-2.07,3.29a58.68,58.68,0,0,0-3.86-5.56ZM157,189.45a2.39,2.39,0,0,1-.2.68c-.62,1.25-2.32,1.79-3.57,2l-4.39,1a5.71,5.71,0,0,1-.34-4.9,4.85,4.85,0,0,1,3.12-3.37,6.6,6.6,0,0,1,3.23-.26,5.33,5.33,0,0,1,2,3.09A4.91,4.91,0,0,1,157,189.45Zm13-2.41a5,5,0,0,1-.4.34,18.11,18.11,0,0,0-3.57-9,19.9,19.9,0,0,0-1.62-1.81,15.11,15.11,0,0,0-7.57-4,20.06,20.06,0,0,0-10.71,1,41.15,41.15,0,0,0,8.56-11.14,33.13,33.13,0,0,0,2.15,3.77,38.91,38.91,0,0,0,5.92,7.11c.54.51,1.08,1,1.64,1.47a46,46,0,0,0,11.08,6.94A72.81,72.81,0,0,1,169.91,187Zm6.21-73.87c-.85.71-1.64,1.47-2.44,2.24.77-1,1.59-2,2.44-2.95.65-.71,1.3-1.39,2-2l.43.74C177.7,111.84,176.88,112.49,176.12,113.17Zm9.61,45.52a23.83,23.83,0,0,1-2-2.44,23.51,23.51,0,0,1-4.14-15.59,30.25,30.25,0,0,1,4.14-13.29c.28-.45.57-.88.88-1.3a56.81,56.81,0,0,1,2.64,10.15A48.21,48.21,0,0,1,185.73,158.7Zm26.9-42a64.84,64.84,0,0,0-9.86-14.91,52,52,0,0,0-19-13.95h0l-.37-.17a5.06,5.06,0,0,1,.37-.4c.26-.28.48-.57.74-.82,4.45,3.37,11.08,6.07,15.79,7.51.85.26,1.7.51,2.55.74a79.17,79.17,0,0,0,19.47,2.78A84.07,84.07,0,0,0,212.63,116.69Zm-3.74-36.62c-.09,0-.14,0-.2,0,1.47,0,2.92-.09,4.28-.17a119.32,119.32,0,0,0,12.64-1.56c1.84-.31,3.66-.68,5.44-1.08,1.28-.28,3.54-.77,5.7-1.39a60.58,60.58,0,0,0,5.78,6.29,5.69,5.69,0,0,0-1.39,0,94.54,94.54,0,0,1-15.53.31A99.88,99.88,0,0,1,208.89,80.07Zm25.46,30a59.59,59.59,0,0,0-5.3,7.57c3.57-9.69,9.44-20.47,16.07-26.59a5.07,5.07,0,0,0,1.87-5l1.87,1.53c2,1.59,4.08,3.09,6.09,4.39-2.07,1.36-4.11,2.78-6.09,4.31A84.7,84.7,0,0,0,234.34,110.11ZM255.94,165a5.84,5.84,0,0,1-2.78,2.27,12.36,12.36,0,0,1-1.28.09,5.54,5.54,0,0,0,.26-1.53,4.11,4.11,0,0,0-.48-2.38,5.15,5.15,0,0,0-2.69-2.66l-.11-.06a5,5,0,0,0-2.35-.31,1.62,1.62,0,0,1,.26-.23,14.14,14.14,0,0,1,2.1-1.36,9.34,9.34,0,0,1,3.91-1.22c1.56-.06,2.35.91,3.06,2.24C256.71,161.53,257,163.29,255.94,165Zm3.66-26.65c-.2,2.47-.4,4.9-.54,7.34a18.2,18.2,0,0,0-10.2-1.25,20.08,20.08,0,0,0-10.23,4.9A26.76,26.76,0,0,1,238,138.8a31.9,31.9,0,0,1,1.81-6.72l9-.11,11.08-.11C260,134.07,259.74,136.33,259.6,138.35Zm18.48,29.88a6.07,6.07,0,0,1-1.84-1.42,5.07,5.07,0,0,1-.4-.37c-1-1.25-1.59-6.24-1.73-7.8a59,59,0,0,1-.11-10c.28-3.4.51-6.83.68-10.26a72,72,0,0,0,0-9.89,16.64,16.64,0,0,0-1.56-5.73,16.73,16.73,0,0,1,2.86-.65v2.72a61.74,61.74,0,0,1-.11,6.49c-.17,1.56-.2,3.26-.26,4.85-.11,2.38-.2,4.76-.31,7.14s-.26,4.68-.48,7c-.54,5.07-.11,9.35,1.42,13a18.87,18.87,0,0,0,3.09,5C278.9,168.34,278.5,168.28,278.08,168.22Zm-1.84-60.43H265.32L264,108.89c-.85.71-1.67,1.42-2.49,2.15-4.22,3.63-8.45,7.29-12.7,10.89-.79.65-1.62,1.33-2.41,2l-4.65,3.86a57,57,0,0,1,7.06-10,106.25,106.25,0,0,1,12.7-12.3c4.71-3.91,9.5-7.4,13.66-10.29l.09-.09a18.85,18.85,0,0,0,2.32,8.16,17,17,0,0,0,3.66,4.54Zm14,4.56v31.21a69.86,69.86,0,0,1-.68,8.5,23.2,23.2,0,0,1-.71,3.43c0-.17,0-.31.06-.43.28-2.32.51-4.71.65-7.09.17-2.58.26-5.19.34-7.71.17-4.56,0-9.38,0-14s-.09-9.33-.14-14V112a3.3,3.3,0,0,0,.51.11Zm5.61-14a8.25,8.25,0,0,1-4.08-2c-1.56-1.47-2.69-3.86-1.42-5.84a12.4,12.4,0,0,1,5.5-4.39c.34-.14.71-.31,1.08-.43a4.52,4.52,0,0,0-.74,1.9,4.8,4.8,0,0,0,0,1.56l.37,2.15,1.9,1a9.9,9.9,0,0,1,2.75,2.41,2.59,2.59,0,0,1,.65,2.1,1.46,1.46,0,0,1-.65.74,6.27,6.27,0,0,1-1.59.65A8.45,8.45,0,0,1,295.82,98.35Zm5.36,67.83-1.67-.85a19.24,19.24,0,0,0,1.67-3.43c.26-.68.48-1.39.68-2.1.23,2.41.57,4.82,1,7.17C302.32,166.72,301.75,166.44,301.18,166.18Zm28.52.94a8.36,8.36,0,0,1-2.47-1.87c-.91-1-1.62-5-1.9-7,0-.26-.06-.45-.09-.62a53.18,53.18,0,0,1-.4-9.72c.17-1.67.34-3.32.48-5,.09-.77.17-1.56.26-2.35q0,1.4-.09,2.72c-.06,2.27-.11,4.51-.11,6.77,0,7.26,1.45,12.76,5.1,17.12Zm-5.44-45.5c.34-.11.71-.26,1.08-.34s.54-.17.82-.23c0,1.08,0,2.15,0,3.23,0,2,.14,4.76-.06,6.8a25.61,25.61,0,0,0-.11-2.61,26.48,26.48,0,0,0-.68-3.83A16.07,16.07,0,0,0,324.26,121.62Zm1.08-13.8-8.76,0-.62.57c0-.88,0-1.76,0-2.66l0-2.89s.06,0,.06-.06c2.92-2.64,6.12-2.66,9.27-.94.4.23.77.45,1.16.71,2.66,1.81,5.44,3.63,8.25,5.33Zm15.36,4.56v31.21a71.28,71.28,0,0,1-.74,10.18c0,.17-.06.34-.09.48a11.23,11.23,0,0,1-.28-1.28,50.31,50.31,0,0,1,0-12.39c.17-1.7.11-3.69.11-5.41q0-4.42-.09-8.84c0-4.68-.09-9.35-.17-14l0-1.79.57.34.48.26.26.14Zm12.22,51.87a13.88,13.88,0,0,0-1.47-.68,18.79,18.79,0,0,0,1.47-3.26c.2-.54.37-1.08.54-1.64.23,2.1.54,4.25,1,6.32C353.91,164.74,353.42,164.48,352.91,164.25Z" transform="translate(-19.33 -17.82)"/><path class="cls-2" d="M303.76,106.31c.6-.28,1.16-.54,1.73-.85A40.43,40.43,0,0,0,314,99.28c3-2.72,8.76-5.44,15.82-.74a1.2,1.2,0,0,1,.2.14c7.17,4.88,13.58,8.39,13.58,8.39a59.24,59.24,0,0,0-13.78-21.46c-.62-.6-1.28-1.16-1.93-1.73-4.48-3.77-11.59-9.81-22.37-9.75a34.79,34.79,0,0,0-12.73,2.72c-11.28,4.56-14.49,16.5-10.2,24.09C286,107.14,294.95,110.2,303.76,106.31ZM287.43,88c2.89-4.56,9.24-7.74,15.25-7.94a23.21,23.21,0,0,1,2.81.09c8.56.65,16.78,5.39,19.3,9.84a161,161,0,0,0-19.3-2.32c-.85,0-1.64-.06-2.41,0-.57,0-1.56.28-1.5.71a12.51,12.51,0,0,1,3.91,3.26c2.35,3.06,2.61,6.72,0,9.07a9,9,0,0,1-3.83,1.93,13.34,13.34,0,0,1-12.1-3C287.12,97.3,284.54,92.54,287.43,88Z" transform="translate(-19.33 -17.82)"/><path class="cls-2" d="M363.46,156c.06-4.85-.09-51.65-.09-51.65a25.17,25.17,0,0,1-10.26,6.55,26.07,26.07,0,0,1-6.92,1.42v31.21c0,2.55-.45,10.52-1.42,13.52-.82,2.52-2.1,4.37-4.28,3.74-3.8-1-5.78-7.29-4.51-20.69.23-2.55-.17-27.78-.17-27.78l-6,0-10.54,0s-3.29,2.95-7,6.07c.09-7.37.17-12.76.17-12.76a20.17,20.17,0,0,1-6.89,4.39,27.69,27.69,0,0,1-9.78,2.3v31.21c0,2.58-.71,10.6-1.67,13.58-.82,2.52-2,4.68-5,4.51-2.15-.11-4.22-3.09-3.69-7.14.6-4.56.88-11.82,1-14.37s-.17-27.78-.17-27.78H267.93s-10.83,9.3-15.53,13.32c-1.13.94-1.9,1.59-2.1,1.76l2.1,0,12.61-.14c1.3,6.55-.94,14.4-.71,28.86a12.31,12.31,0,0,0-11.91-7.37,14.94,14.94,0,0,0-13.78,10.26C228.25,140,237.15,123,252.4,108.36a175.56,175.56,0,0,1,21.15-17A90.79,90.79,0,0,1,252.4,74.62c-5.22-5.44-8.62-10.23-9.35-12.1,0,0-33.73,16.13-58.42,2.24a38.09,38.09,0,0,1-4.73-3.15s-3.51,2.3-7.48,4.68c-4.17,2.49-8.84,5.1-10.46,5.24h-.06l.06.17,8.93,25.14,1.53-2c3.37-4.31,9.1-11,10.52-12.44a10.42,10.42,0,0,1,1.7-1.53c.6-.34,1.11-.28,1.81.45,4.42,4.59,22.88,13.75,46.69,11.14-13.58,13.58-19.39,36.91-18.62,41.64-2.92-17.49-14.94-34.41-29.88-41.36-.57-.26-1.13-.51-1.7-.74-2.15,2.66-6.43,7.14-10.52,11.31-2,2-3.88,4-5.5,5.61a50.16,50.16,0,0,0-5,6.09,45.07,45.07,0,0,0-6,11.45c-.82-1.7-1.64-3.29-2.49-4.82C147.74,111.45,141,105,134,101.3a36,36,0,0,0-7.29-2.81,35.15,35.15,0,0,0-8.53-1,38,38,0,0,0-7.63.79,50.54,50.54,0,0,0-5.39,1.5l-.17,7.48a27.1,27.1,0,0,1,5.56,1.84c2.89,1.28,5.73,2.81,7.63,3.71a12.5,12.5,0,0,0,1.16.54l-1.16.34a41.39,41.39,0,0,0-7.63,3.15,30.63,30.63,0,0,0-7.68,5.53,53.89,53.89,0,0,0-4.79-7.4c-8.87-11.4-18.68-13.46-21-14.88,7.51-4.73,15.39-17.83,21-29.34,2.66-5.56,4.82-10.71,6.18-14.43-2-3.34-4.17-6.69-6.18-9.61C96.55,44.52,95.13,42.59,94,41a67.1,67.1,0,0,0-7.63-8.22c-1.5,1.73-6.66,9.89-23.64,11.57a84.53,84.53,0,0,1-20.44-.88S24.89,40.41,26,57.19a128.66,128.66,0,0,0,4.56,27.92H36c3.66-2.92,13.72-17.86,13.72-17.86s2.75-.14,9.78,1.39c1.08.23,2.15.43,3.2.57a48.54,48.54,0,0,0,10.06.34A55,55,0,0,1,62.73,89.9a50.59,50.59,0,0,1-11.45,10.77s-.37.34,1,1a56.8,56.8,0,0,1,10.46,7.46,43.21,43.21,0,0,1,9.3,11c7.11,12.93,5.22,32.4-4.51,40.28A14.64,14.64,0,0,1,62.73,163c-4.71,1.45-10.6.79-16.75-2.18,16.81-.54,19.45-19.84,3.23-29.06-13.29-7.4-23.73,5-24.35,17.4v2.32A18.81,18.81,0,0,0,26,157.11c3.6,10.06,18.65,21.83,36.77,20.92,11-.57,23.1-5.81,34.47-18.94l.85,1.19a48.05,48.05,0,0,0,12.47,12.56,30.67,30.67,0,0,0,7.63,3.66,25,25,0,0,0,8.53,1.16,25.35,25.35,0,0,0,7.29-1.42c8.67-3.06,15.85-10.69,19.47-20.13a38.24,38.24,0,0,0,2.49-11.06,35.08,35.08,0,0,0,6,19.33,36.6,36.6,0,0,0,10.46,10.09,37,37,0,0,0,11.14,4.9c-.94,2.72-5.87,8-11.14,12.19a35.33,35.33,0,0,1-9.16,5.64c4.22-4.59,3.54-13.12-1.3-17.57a11.12,11.12,0,0,0-8.5-2.86,18.37,18.37,0,0,0-5.3,1.22c-7.77,3-12.36,21.57,4.28,26.7l1,.31a51.2,51.2,0,0,0,8.5,1.64,46.09,46.09,0,0,0,10.46-.11,42,42,0,0,0,22.73-10.37c10.12-9.07,21.51-31.29,20.58-47,6,24.63,23.75,32.14,36.68,29,6.12-1.47,11.17-5.33,13.38-10.89,0,0,0-.31.09-.88,2,7.17,6.26,11.28,12.44,11.48a18.47,18.47,0,0,0,6-.94,36.67,36.67,0,0,1,18.43-.79c.4.14,1.42.45,2.72.85,3.43,1,9,2.47,11.91,1.7-2.21-4.22-4.85-13.66-5.3-19.73-.17-2.69-.09-18.74.06-32.57l4.39.2c1.36,5.64-1,11.88-.45,29.37a62.46,62.46,0,0,0,.6,6.92c1.28,8.59,6.38,13.12,13.1,13.69a21.62,21.62,0,0,0,8.08-1,27,27,0,0,1,15.25-.4c.71.2,1.25.37,1.56.48,1.5.43,10.83,3.29,14.88,2.24C367.37,173.27,363.37,163.35,363.46,156ZM62.73,99.37c-.28,0-.6.06-.91.06l.91-1.25c3.52-4.79,11.45-15.59,13.55-18.68,2.52-3.69,5.33-10,4.14-14a32.75,32.75,0,0,1-17.69-1.9c-6.35-2.38-11.17-5.61-15.51-5-2.66,4.28-11.08,17.12-11.08,17.12a34.76,34.76,0,0,1-1.62-11.08c0-3.4.11-6.8.28-8.84.28-3.71,2.64-6,7.37-5.75,3.74.14,11.91,1.11,20.55.51s17.94-2.86,23.58-9.24C89.89,44.41,96.58,53,98.05,55.55a2.27,2.27,0,0,1,.23.48,2.42,2.42,0,0,1-.23,1.13c-1.93,5.22-13.83,25.51-19,31.18S69.45,98.72,62.73,99.37ZM91,154.19a38.07,38.07,0,0,1-28.32,18.62c-12.16,1.5-24-2.83-29.11-10.94-7.51-12-1.47-20.38,1.64-23.47,1.5-1.5,12-5.78,17.12,5.61,6.18,13.72-7.82,13.41-14.63,13.41.51,4,13.1,13.1,25,11.54a18.84,18.84,0,0,0,5.44-1.53c5.56-2.55,10.52-7.88,13.72-15,4.39-9.72,2.24-22.2-1.47-30.39-6.35-14-13.72-18.45-13.72-18.45,5.44-1.19,14.32,1.93,20.81,8.84,1.45,1.56,7.11,8.31,7.82,19.93C95.7,138.37,95.53,146.68,91,154.19ZM126.48,163a19.19,19.19,0,0,1-8.33-6.21c-5-6.66-3.8-15.76,0-22.71a22.1,22.1,0,0,1,7.88-8.56,3.8,3.8,0,0,1,.65.51A29,29,0,0,1,134,141.27a23.65,23.65,0,0,1,0,7.48,26.55,26.55,0,0,1-7.29,14.09A1.31,1.31,0,0,0,126.48,163Zm7.48,7.82a28.76,28.76,0,0,1-4.39,1.64,29.9,29.9,0,0,0,4.39-5.1c6.46-9.33,12.1-26.42,0-41a41.23,41.23,0,0,0-7.29-6.77,1.23,1.23,0,0,1-.2-.17,36.6,36.6,0,0,0-8.33,5.75,28,28,0,0,0-7.63,11.42,27.32,27.32,0,0,0,0,17.6,25.76,25.76,0,0,0,7.63,11.4,20.09,20.09,0,0,0,8.48,4.31l-3.83,3.26a11.38,11.38,0,0,1-4.65-.82,23.29,23.29,0,0,1-7.63-4.9c-7-6.63-12.3-18.48-7.09-32.66a27.92,27.92,0,0,1,7.09-11.2,23.75,23.75,0,0,1,7.63-4.62c1.16-.45,2.24-.82,3.17-1.16,2.38-.91,4.17-1.45,5.36-2s1.79-1,1.87-1.7c0-.34-.77-1-1.87-1.84-1.84-1.39-4.62-3.2-6.26-4.65a14.56,14.56,0,0,1-2.27-2.41c-.54-.79-.65-1.5,0-2a5.66,5.66,0,0,1,3.17-.65,12.84,12.84,0,0,1,5.36,1.25,31.57,31.57,0,0,1,7.29,4.68,38.9,38.9,0,0,1,6.69,7.2C152.08,132.11,153.75,161.59,134,170.86Zm38.44-4.2a34.35,34.35,0,0,1-10.46-19.45q-.21-1-.34-2a38.23,38.23,0,0,1,.34-12.61,49,49,0,0,1,10.46-21.77,27.94,27.94,0,0,1,7.37-6.49,17.86,17.86,0,0,1,4.85,7.17c.14.4.31.79.45,1.25a4.33,4.33,0,0,0-.45.31,41.27,41.27,0,0,0-12.22,12.22c-7.09,11.42-5,23.92,0,33.36,3.34,6.24,8,11.17,12.22,13.55a9.4,9.4,0,0,0,1.5.77l-.91,1.79a5.66,5.66,0,0,1-.6-.28A43.56,43.56,0,0,1,172.4,166.66Zm14.46-48.19c1.9,2.07,12.53,25.09,1.76,47.51a27.26,27.26,0,0,1-4-3c-13.83-12.53-9.24-34.27,0-42.77A15.79,15.79,0,0,1,186.86,118.47Zm-29.23,83.4a17.69,17.69,0,0,1-4.2-.91c-5.58-1.87-10.8-6.55-8.36-14.14a9.46,9.46,0,0,1,8.36-6.83,9.08,9.08,0,0,1,3.88.34c1.81.68,3.71,2.95,4.62,5.58a8.36,8.36,0,0,1,0,5.81c-.88,2.15-3,4-6.83,4.82C155.11,196.54,159.11,198.33,157.64,201.87Zm40-18.31a44.5,44.5,0,0,1-13,13.86,32.74,32.74,0,0,1-12.22,4.88,36.52,36.52,0,0,1-10.46.23,2.79,2.79,0,0,0-.48-.06,2.4,2.4,0,0,1,.48-.14,43.71,43.71,0,0,0,10.46-5,55.46,55.46,0,0,0,12.22-10.54c.45-.51.91-1,1.33-1.62,14-17.52,23.87-51.14-1.33-84.53l-.14-.2.14.06c8.19,2.81,14.77,6.09,20.66,26.39C210,143.11,208.23,166.49,197.63,183.56Zm23.75-49.24c1.84-19.53,13.44-39.29,21.86-46.89.14-.09.74-1-.68-.85-23.33,2.41-46.18-3.94-57.94-11.79l-.54-.37c-7,4.73-10.91,13.58-10.91,13.58a17.14,17.14,0,0,0-.77-4.54c-1-4-2.86-8.48-3.06-9.24,1.08-.85,2.07-1.64,3.06-2.38,3.37-2.38,6.66-3.71,12.22-2.47a43.62,43.62,0,0,1,9,3.37c14.09,6.8,44.79-1.47,45.75-2.47,2.21,3.6,7.31,9,13,13.49,4.25,3.43,8.82,6.41,12.67,7.88A107.86,107.86,0,0,0,252.4,100a80.11,80.11,0,0,0-13.61,13c-21.15,25.88-7.6,50.83,4.73,59.13C226.86,171.17,220.28,150.65,221.39,134.32Zm33.36,37.36a16.42,16.42,0,0,1-2.35.17c-2-.06-3.91-.57-5-2-1.7-2.38,1.62-3.34,1-4.59-.45-.94-.91.17-3.4-.79s-3.86-5-.23-7.91a17.32,17.32,0,0,1,7.54-3.46c3-.45,6.24.37,8.39,4.56C265.07,165.93,257.92,171.23,254.75,171.68Zm23.56,1a1.46,1.46,0,0,0-.31-.06c-2.07-.54-3.17-1.84-4.34-2.92-3.6-3.29-3.6-17.55-3.26-21.51.31-3.37,1.16-14.8.71-19.3s-2.3-7.31-5.73-6.6a22.28,22.28,0,0,1,12.93-4.9,22,22,0,0,1,3.12.06s.17,12.08-.09,14.37-.4,12.7-1,18.94c-1.08,10.06,2.1,15.7,10.91,20.13C286.67,172.53,282,173.24,278.31,172.65Zm27.18-.09c-4.37-1.64-9.64-4.76-13.58-6.41,8.82-1.59,7.48-18.62,7.77-21.88s.26-26.87.26-26.87l5.56-2.27,2-.82s-.28,26.79-.54,35.26c-.26,8.14,1,18.68,3.51,24.07A12.61,12.61,0,0,1,305.49,172.56Zm24.29-1-.17-.06a10.31,10.31,0,0,1-4.51-2.92c-3.6-3.29-4.2-17.12-3.83-21.09.31-3.37,1.59-14.09,1.13-18.6s-2-8.39-5.41-7.68c4.85-4,9.33-5,12.78-5a12.27,12.27,0,0,1,1.79.06s.26,13.32,0,15.62-.68,11.93-.68,18.17c0,10.12,2.89,15.48,11.71,19.9A25,25,0,0,1,329.78,171.51Zm23.33-2.64a37.71,37.71,0,0,0-9.55-3.57c8.93-2.78,7.4-18.79,7.65-22.05s0-27,0-27l1.9-.6,5.75-1.87s-.09,26.19-.37,34.67c-.26,8.14,1.28,19,4.14,24.24C359.86,172.9,357.08,170.92,353.11,168.88Z" transform="translate(-19.33 -17.82)"/><path class="cls-2" d="M137.17,58a4,4,0,0,1-2.24,1,2.66,2.66,0,0,1-1-.2,4.79,4.79,0,0,1-1.3-.77.74.74,0,0,0-1,0,3.08,3.08,0,0,1-4.48,0,.73.73,0,0,0-.51-.2.68.68,0,0,0-.51.2,3.08,3.08,0,0,1-4.48,0,.78.78,0,0,0-1,0,3.84,3.84,0,0,1-2.24,1l-.28,0a4.14,4.14,0,0,1-2-.94.74.74,0,0,0-1,1.08,5.4,5.4,0,0,0,3,1.33,1,1,0,0,0,.28,0,4.71,4.71,0,0,0,2.75-1,4.31,4.31,0,0,0,5.5,0,4.64,4.64,0,0,0,2.75,1,4.71,4.71,0,0,0,2.75-1,5,5,0,0,0,1.79.88,5.27,5.27,0,0,0,1,.11,5.2,5.2,0,0,0,3.23-1.36.73.73,0,1,0-1-1.08Z" transform="translate(-19.33 -17.82)"/><path class="cls-2" d="M110.52,61.67a22.28,22.28,0,0,0,3,1.45c.14,3-1.08,6.58-3,10.09A56.73,56.73,0,0,1,98.05,88.51l-.26.2h.26l7.26.65-.17,8.87A40.4,40.4,0,0,1,110.52,97a55.15,55.15,0,0,1,7.63-.71,11.83,11.83,0,0,1,1.42,0V88.88h16.16v11.28a25.85,25.85,0,0,1,3.88,2.61l.2.11V89.19h8.14v17.94l.06,0,4.2-1.16h.06V95.32h4.68v11.54l.06,0c1.45-1.39,3.15-2.41,2.44-13.69v-.06l-.26-1.62a4.08,4.08,0,0,0-4.62-3.32,3.49,3.49,0,0,1-1.11-.17c-1.84-.48-5.22-2-5.7-4.85l-11.51-.77,17.21-15.36,2-1.79,1,1.08-3,2.92-8.82,8.59,3.15,3.88a5.76,5.76,0,0,1,.62-1.81,44.44,44.44,0,0,1,5-7.06c2.72-3.29,6-6.83,8.5-9.52s4.42-4.62,4.42-4.62l6,5,.4.34,6.43-4.31,3,1.84,1.28-.17L172.4,52l-7.31-6.24-3.15,2.75L153.44,56l-.74.65-12.39,9.44-1.11-1s-1.11-.88.4-1.67a10.3,10.3,0,0,0,5.84-9.72c-.11-4.14-3.57-9.35-6.83-11.62A35.05,35.05,0,0,1,134,38.17,25.9,25.9,0,0,1,126.68,25c-.37-1.62-.45-2.61-.74-2.61a33.37,33.37,0,0,1-7.8,16.3A45.88,45.88,0,0,1,112.73,44c-.82.68-1.56,1.33-2.21,2C103.32,53,105.25,58.49,110.52,61.67Zm1.76,22.51H106l4.56-6.69,1-1.53h3.52Zm8.05,0H115.4L117.1,76h3.8Zm.34-11.37h-6l2.78-8.22h4.28Zm32.77-12.5,8.5-7.4,3.6-3.15,6.86,6.09,4,3.51-1.62,1.81-2.35-2.07-6.35-5.7L161.94,57l-8.5,7.31L134,81.06l-5,4.25-2.18-1.59,0,.45h-4.73l.6-8.22h3.83l.14,3.63.14,3.91L134,77.26ZM123.9,72.81l.94-8.22h4.05l.43,8.22H123.9Zm7.65-8.22h3.37l1.45,8.22h-4.14Zm3-2.47-.62,0c-1.47,0-4.2.06-7.29,0-2.72,0-5.75-.11-8.53-.34l-1-.09A8.26,8.26,0,0,1,110.52,57a6.83,6.83,0,0,1-.45-1.28c.14.06.28.14.45.23a5.13,5.13,0,0,0,2,.48,6.85,6.85,0,0,0,3.12-1,4.74,4.74,0,0,0,2.49,1,1,1,0,0,0,.28,0,4.92,4.92,0,0,0,2.75-1,4.4,4.4,0,0,0,5.5,0,4.83,4.83,0,0,0,2.75,1,4.92,4.92,0,0,0,2.75-1,5.52,5.52,0,0,0,1.79.85,5.28,5.28,0,0,0,1,.11,4.92,4.92,0,0,0,2.75-1,4.74,4.74,0,0,0,2.72,1,4.8,4.8,0,0,0,2.13-.57A8.16,8.16,0,0,1,134.59,62.12Zm-8.36-30.9a10.6,10.6,0,0,0,.45,1.33,23.05,23.05,0,0,0,4.14,6.38,3.17,3.17,0,0,1-1.39.4,3.84,3.84,0,0,1-2.24-1,.73.73,0,0,0-.51-.2.68.68,0,0,0-.51.2,3.84,3.84,0,0,1-2.24,1,3.61,3.61,0,0,1-2-.79A31.17,31.17,0,0,0,126.23,31.22Zm-8.08,11.71c.82-.88,1.62-1.79,2.38-2.69.26-.14.48-.28.65-.4a4.4,4.4,0,0,0,5.5,0,4.83,4.83,0,0,0,2.75,1,4.58,4.58,0,0,0,2.41-.77,29.79,29.79,0,0,0,2.13,2.1c.62.57,1.3,1.16,2,1.73a3.31,3.31,0,0,1-1,.23,2.66,2.66,0,0,1-1-.2,4.79,4.79,0,0,1-1.3-.77.74.74,0,0,0-1,0,3.08,3.08,0,0,1-4.48,0,.73.73,0,0,0-.51-.2.68.68,0,0,0-.51.2,3.08,3.08,0,0,1-4.48,0,.78.78,0,0,0-1,0,3.84,3.84,0,0,1-2.24,1,1,1,0,0,1-.28,0,3.13,3.13,0,0,1-.88-.26C117.58,43.53,117.86,43.24,118.15,42.93Zm-5.39,4.73a28.23,28.23,0,0,0,3.4-2.78,4.44,4.44,0,0,0,2,.65,1,1,0,0,0,.28,0,4.71,4.71,0,0,0,2.75-1,4.31,4.31,0,0,0,5.5,0v0a4.83,4.83,0,0,0,2.75,1,4.71,4.71,0,0,0,2.75-1,5,5,0,0,0,1.79.88,5.27,5.27,0,0,0,1,.11,4.69,4.69,0,0,0,2.32-.71q.6.47,1.28.94a10,10,0,0,1,3.2,3.57,2.81,2.81,0,0,1-1.33.34,3.76,3.76,0,0,1-2.24-1,.74.74,0,0,0-1,0,3.76,3.76,0,0,1-2.24,1,2.65,2.65,0,0,1-1-.17,4.52,4.52,0,0,1-1.3-.79.74.74,0,0,0-1,0,3.08,3.08,0,0,1-4.48,0,.85.85,0,0,0-.51-.17.79.79,0,0,0-.51.17,3.08,3.08,0,0,1-4.48,0,.78.78,0,0,0-1,0,3.66,3.66,0,0,1-2.24,1h-.28a3.81,3.81,0,0,1-2-1,.78.78,0,0,0-1,0,3.66,3.66,0,0,1-2.24,1,3.47,3.47,0,0,1-1.73-.57A6.46,6.46,0,0,1,112.76,47.67Zm-2.3,2.75.06,0a4.66,4.66,0,0,0,2.41.74,4.83,4.83,0,0,0,2.75-1,5,5,0,0,0,2.47,1h.28a4.92,4.92,0,0,0,2.75-1,4.4,4.4,0,0,0,5.5,0,4.83,4.83,0,0,0,2.75,1,4.92,4.92,0,0,0,2.75-1,5,5,0,0,0,1.79.85,3.59,3.59,0,0,0,1,.11,4.92,4.92,0,0,0,2.75-1,4.74,4.74,0,0,0,2.72,1,4.49,4.49,0,0,0,1.93-.45,8.89,8.89,0,0,1,.45,3.4l-.11-.11a3.12,3.12,0,0,1-4.51,0,.74.74,0,0,0-1,0,4,4,0,0,1-2.24,1,2.66,2.66,0,0,1-1-.2,4.79,4.79,0,0,1-1.3-.77.74.74,0,0,0-1,0,3.08,3.08,0,0,1-4.48,0,.73.73,0,0,0-.51-.2.68.68,0,0,0-.51.2,3.08,3.08,0,0,1-4.48,0,.78.78,0,0,0-1,0,3.84,3.84,0,0,1-2.24,1,1,1,0,0,1-.28,0,3.87,3.87,0,0,1-2-.94.77.77,0,0,0-.94-.06,5.81,5.81,0,0,1-2.72,1,4,4,0,0,1-2-.68L110,54s-.2,0-.2-.14A7.8,7.8,0,0,1,110.47,50.42Z" transform="translate(-19.33 -17.82)"/></svg>